{"title":"Lucy 2014 HDRIP 480p X264-H3LL2P4Y","uid":11157406,"size":2719508085,"categoryP":"video","categoryS":"movies","magnet":"?xt=urn:btih:f1d721a184529ec48b9e6700ab5a3375b03136a5&amp;dn=Lucy+2014+HDRIP+480p+X264-H3LL2P4Y&amp;tr=udp%3A%2F%2Ftracker.openbittorrent.com%3A80&amp;tr=udp%3A%2F%2Fopen.demonii.com%3A1337&amp;tr=udp%3A%2F%2Ftracker.coppersurfer.tk%3A6969&amp;tr=udp%3A%2F%2Fexodus.desync.com%3A6969","seeders":4,"leechers":1,"uploader":"HeroMaster","files":-1,"time":1412457001,"description":":::::::::: H3LL2P4Y PRESENTS ::::::::::\n\n &lt;a href=&quot;\nhttp://i.imgur.com/rNW29sP.gif&quot; rel=&quot;nofollow&quot; target=&quot;_NEW&quot;&gt;\nhttp://i.imgur.com/rNW29sP.gif&lt;/a&gt;\n\n\n:::: Lucy 2014 HDRIP 480p X264 ::::\n\n\n::Information::\n\n\nIMDB:...... http://www.imdb.com/title/tt2872732\n\n\nSource:.... Lucy 2014 KORSUB 720p WEBRip x264 AC3-JYK\n\n\nGeneral:\n\nFormat : Matroska\nFormat version : Version 4 / Version 2\nFile size : 2.50 GiB\nDuration : 1h 24mn\nOverall bit rate : 4 227 Kbps\nEncoded date : UTC 2014-10-04 02:27:07\nNumber.Of.Frames : 145777\nNumber.Of.Bytes : 121857668\n\n\nVideo:\n\nID : 1\nFormat : AVC\nFormat/Info : Advanced Video Codec\nFormat profile : &lt;a class=&quot;__cf_email__&quot; href=&quot;/cdn-cgi/l/email-protection&quot; data-cfemail=&quot;dc94b5bbb49c90e8f2ed&quot;&gt;[email&amp;#160;protected]&lt;/a&gt;&lt;script cf-hash='f9e31' type=&quot;text/javascript&quot;&gt;\n/* &lt;![CDATA[ */!function(){try{var t=&quot;currentScript&quot;in document?document.currentScript:function(){for(var t=document.getElementsByTagName(&quot;script&quot;),e=t.length;e--;)if(t[e].getAttribute(&quot;cf-hash&quot;))return t[e]}();if(t&amp;&amp;t.previousSibling){var e,r,n,i,c=t.previousSibling,a=c.getAttribute(&quot;data-cfemail&quot;);if(a){for(e=&quot;&quot;,r=parseInt(a.substr(0,2),16),n=2;a.length-n;n+=2)i=parseInt(a.substr(n,2),16)^r,e+=String.fromCharCode(i);e=document.createTextNode(e),c.parentNode.replaceChild(e,c)}}}catch(u){}}();/* ]]&gt; */&lt;/script&gt;\nFormat settings, CABAC : Yes\nFormat settings, ReFrames : 9 frames\nCodec ID : V_MPEG4/ISO/AVC\nDuration : 1h 24mn\nBit rate : 4 033 Kbps\nWidth : 848 pixels\nHeight : 480 pixels\nDisplay aspect ratio : 16:9\nFrame rate mode : Constant\nFrame rate : 24.000 fps\nColor space : YUV\nChroma subsampling : 4:2:0\nBit depth : 8 bits\nScan type : Progressive\nBits/(Pixel*Frame) : 0.413\nStream size : 2.34 GiB (93%)\nWriting library : x264 core 142 r2431 ac76440\nLanguage : English\nDefault : Yes\nForced\n\n\nAudio:\n\nID : 2\nFormat : AC-3\nFormat/Info : Audio Coding 3\nMode extension : CM (complete main)\nFormat settings, Endianness : Big\nCodec ID : A_AC3\nDuration : 1h 24mn\nBit rate mode : Constant\nBit rate : 192 Kbps\nChannel(s) : 2 channels\nChannel positions : Front: L R\nSampling rate : 44.1 KHz\nBit depth : 16 bits\nCompression mode : Lossy\nStream size : 116 MiB (5%)\nDefault : Yes\nForced : No\n\n\n::Greetz and Respect::\n\n\nALL CREDIT GOES TO H3LL2P4Y for Encoding and Distribution.\n\n\n::Poster::\n\n &lt;a href=&quot;\nhttp://i.imgur.com/PIIdw3D.jpg&quot; rel=&quot;nofollow&quot; target=&quot;_NEW&quot;&gt;\nhttp://i.imgur.com/PIIdw3D.jpg&lt;/a&gt;\n\n\n::Screenshots::\n\n &lt;a href=&quot;\nhttp://i.imgur.com/5Xuc79I.png&quot; rel=&quot;nofollow&quot; target=&quot;_NEW&quot;&gt;\nhttp://i.imgur.com/5Xuc79I.png&lt;/a&gt;\n\n &lt;a href=&quot;\nhttp://i.imgur.com/SJNF6Vg.png&quot; rel=&quot;nofollow&quot; target=&quot;_NEW&quot;&gt;\nhttp://i.imgur.com/SJNF6Vg.png&lt;/a&gt;\n\n &lt;a href=&quot;\nhttp://i.imgur.com/Dqm0nhu.png&quot; rel=&quot;nofollow&quot; target=&quot;_NEW&quot;&gt;\nhttp://i.imgur.com/Dqm0nhu.png&lt;/a&gt;\n\n\nSEED AND ENJOY!","torrent":{"xt":"urn:btih:f1d721a184529ec48b9e6700ab5a3375b03136a5","amp;dn":"Lucy+2014+HDRIP+480p+X264-H3LL2P4Y","amp;tr":["udp%3A%2F%2Ftracker.openbittorrent.com%3A80","udp%3A%2F%2Fopen.demonii.com%3A1337","udp%3A%2F%2Ftracker.coppersurfer.tk%3A6969","udp%3A%2F%2Fexodus.desync.com%3A6969"],"infoHash":"f1d721a184529ec48b9e6700ab5a3375b03136a5","infoHashBuffer":{"type":"Buffer","data":[241,215,33,161,132,82,158,196,139,158,103,0,171,90,51,117,176,49,54,165]},"announce":[],"urlList":[]}}